#!OML:ASF H:\Male1\Project 1\Capture day 1\Session 1\Male1.ASF
:FULLY-SPECIFIED
:DEGREES
527
root 23.7073 15.2805 -4.24324 310.838 87.1178 -48.0324
lowerback 3.8642 2.16345 0.160693
upperback 4.52111 3.00667 -0.74938
thorax 2.53237 1.56652 -0.903665
lowerneck -7.39515 5.12158 8.79294
upperneck 3.47255 6.22817 -4.40335
head 2.92298 3.09314 -2.70471
rclavicle -2.79292e-014 7.15625e-015
rhumerus -29.0752 8.7504 -92.4269
rradius 35.4193
rwrist -20.4658
rhand -17.9636 2.04815
rfingers 7.12502
rthumb 8.30544 -27.7686
lclavicle -2.79292e-014 7.15625e-015
lhumerus -20.1589 0.694753 86.7555
lradius 29.6762
lwrist -3.74974
lhand -18.4696 13.6282
lfingers 7.12502
lthumb 7.81707 43.4637
rfemur -7.62836 19.329 27.8455
rtibia 28.536
rfoot -33.516 -29.1932
rtoes -8.39749
lfemur -10.7967 -18.3645 -21.536
ltibia 34.1813
lfoot -30.0888 26.8398
ltoes 4.9405
528
root 23.7079 15.2804 -4.2424 311.416 87.1463 -47.413
lowerback 3.95734 2.16322 0.0899511
upperback 4.43973 3.00189 -0.765729
thorax 2.39321 1.56106 -0.887236
lowerneck -7.24886 5.15465 8.91281
upperneck 3.58594 6.28105 -4.50657
head 2.94891 3.12082 -2.76172
rclavicle 4.22417e-014 -1.23246e-014
rhumerus -29.2111 8.67857 -92.4947
rradius 35.3111
rwrist -20.3345
rhand -17.7019 1.86322
rfingers 7.12502
rthumb 8.558 -27.9433
lclavicle 4.22417e-014 -1.23246e-014
lhumerus -20.3654 0.28651 86.7535
lradius 29.8229
lwrist -3.62524
lhand -18.3825 13.6552
lfingers 7.12502
lthumb 7.90117 43.4875
rfemur -7.52754 19.4537 27.8402
rtibia 28.4355
rfoot -33.8121 -29.1419
rtoes -7.45743
lfemur -10.7848 -18.355 -21.5838
ltibia 34.2616
lfoot -30.2152 26.7243
ltoes 5.1218
529
root 23.713 15.2809 -4.24482 309.261 87.148 -49.6082
lowerback 3.87214 2.14629 0.202566
upperback 4.3992 2.97938 -0.760996
thorax 2.40393 1.55179 -0.942101
lowerneck -7.24392 5.14463 8.9327
upperneck 3.73385 6.27026 -4.54112
head 3.00071 3.11647 -2.77787
rclavicle 3.37934e-014 -1.98785e-015
rhumerus -29.2227 8.66184 -92.5158
rradius 35.0559
rwrist -20.2286
rhand -17.3001 1.35521
rfingers 7.12502
rthumb 8.94576 -28.4351
lclavicle 3.37934e-014 -1.98785e-015
lhumerus -20.4465 0.121494 86.7474
lradius 29.7989
lwrist -3.72131
lhand -18.2762 13.4674
lfingers 7.12502
lthumb 8.00373 43.2958
rfemur -7.49638 19.3673 27.8917
rtibia 28.3585
rfoot -33.9767 -29.0188
rtoes -6.93644
lfemur -10.8415 -18.3863 -21.5108
ltibia 34.3245
lfoot -30.2377 26.6733
ltoes 5.06528
530
root 23.7194 15.2815 -4.24806 305.433 87.1337 -53.5076
lowerback 3.72551 2.14949 0.451815
upperback 4.40352 2.98817 -0.772591
thorax 2.50405 1.56328 -1.08642
lowerneck -7.36597 5.11231 8.92295
upperneck 3.85697 6.21841 -4.53332
head 3.06163 3.09103 -2.77432
rclavicle 3.53837e-014 -1.35174e-014
rhumerus -29.1523 8.48433 -92.491
rradius 34.7748
rwrist -20.0387
rhand -17.0683 1.03066
rfingers 7.12502
rthumb 9.16948 -28.75
lclavicle 3.53837e-014 -1.35174e-014
lhumerus -20.3934 -0.111866 86.7454
lradius 29.6849
lwrist -3.76433
lhand -18.1409 13.4098
lfingers 7.12502
lthumb 8.13432 43.2332
rfemur -7.49178 19.159 27.9819
rtibia 28.2852
rfoot -33.983 -28.9002
rtoes -6.9073
lfemur -10.9411 -18.3706 -21.3527
ltibia 34.3864
lfoot -30.0888 26.6035
ltoes 4.7668
531
root 23.7251 15.2815 -4.25033 303.352 87.174 -55.6254
lowerback 3.62886 2.17908 0.591569
upperback 4.41454 3.03115 -0.817661
thorax 2.5805 1.58988 -1.20642
lowerneck -7.52352 5.09233 8.95619
upperneck 4.01954 6.17806 -4.55567
head 3.14755 3.07118 -2.78799
rclavicle 4.14466e-014 -1.43125e-014
rhumerus -29.0824 8.20508 -92.4481
rradius 34.4547
rwrist -19.7666
rhand -16.9444 0.884449
rfingers 7.12502
rthumb 9.28899 -28.8909
lclavicle 4.14466e-014 -1.43125e-014
lhumerus -20.3826 -0.351243 86.7424
lradius 29.5498
lwrist -3.74422
lhand -18.1715 13.1345
lfingers 7.12502
lthumb 8.10484 42.9591
rfemur -7.45676 19.0448 27.9889
rtibia 28.2128
rfoot -33.989 -28.8725
rtoes -6.98918
lfemur -11.0146 -18.3118 -21.3097
ltibia 34.446
lfoot -29.7766 26.663
ltoes 3.65004
532
root 23.7287 15.2811 -4.24947 302.786 87.1145 -56.1716
lowerback 3.62593 2.24787 0.703455
upperback 4.4245 3.12553 -0.826605
thorax 2.60169 1.64085 -1.27848
lowerneck -7.62187 5.04873 8.97455
upperneck 4.16334 6.11497 -4.61507
head 3.21523 3.03887 -2.81443
rclavicle -2.5842e-014 8.74653e-015
rhumerus -29.081 7.77251 -92.3449
rradius 34.2045
rwrist -19.3656
rhand -16.8264 0.743133
rfingers 7.12502
rthumb 9.40282 -29.0271
lclavicle -2.5842e-014 8.74653e-015
lhumerus -20.4489 -0.534386 86.7613
lradius 29.3829
lwrist -3.76442
lhand -18.3396 12.9677
lfingers 7.12502
lthumb 7.94257 42.7984
rfemur -7.40256 19.1556 28.0933
rtibia 28.1874
rfoot -33.8323 -29.1189
rtoes -7.72061
lfemur -11.0154 -18.2156 -21.234
ltibia 34.4739
lfoot -29.5897 26.7236
ltoes 3.02587
533
root 23.7327 15.2804 -4.24883 302.292 87.1204 -56.6273
lowerback 3.66976 2.28095 0.723042
upperback 4.4052 3.16992 -0.836068
thorax 2.56015 1.66345 -1.30211
lowerneck -7.59027 5.00244 9.00508
upperneck 4.24827 6.05973 -4.70238
head 3.24013 3.01038 -2.85465
rclavicle 1.09332e-015 -7.55382e-015
rhumerus -29.1988 7.28914 -92.2412
rradius 34.0558
rwrist -18.9105
rhand -16.7358 0.610402
rfingers 7.12502
rthumb 9.49024 -29.1559
lclavicle 1.09332e-015 -7.55382e-015
lhumerus -20.6401 -0.578094 86.7371
lradius 29.2418
lwrist -3.80607
lhand -18.371 13.0953
lfingers 7.12502
lthumb 7.91226 42.9272
rfemur -7.34135 19.1807 28.1309
rtibia 28.1894
rfoot -33.5726 -29.3531
rtoes -8.59601
lfemur -10.9662 -18.152 -21.2435
ltibia 34.4825
lfoot -29.6223 26.6621
ltoes 3.23111
534
root 23.7392 15.2792 -4.25088 300.986 87.3509 -57.9132
lowerback 3.65923 2.2346 0.557752
upperback 4.38005 3.1052 -0.874442
thorax 2.53127 1.6265 -1.24891
lowerneck -7.46702 5.00812 8.98446
upperneck 4.2771 6.08163 -4.71091
head 3.2276 3.02226 -2.85428
rclavicle -5.06901e-015 -3.97569e-016
rhumerus -29.3293 7.13756 -92.2235
rradius 33.8321
rwrist -18.8707
rhand -16.8268 0.565632
rfingers 7.12502
rthumb 9.40248 -29.2046
lclavicle -5.06901e-015 -3.97569e-016
lhumerus -20.884 -0.278682 86.6602
lradius 29.0311
lwrist -4.0641
lhand -18.3519 13.0914
lfingers 7.12502
lthumb 7.93067 42.9227
rfemur -7.30356 19.0383 27.9571
rtibia 28.2492
rfoot -33.6574 -29.3234
rtoes -8.56944
lfemur -10.9005 -18.1516 -21.4454
ltibia 34.435
lfoot -29.4766 26.6308
ltoes 2.73411
535
root 23.7464 15.2777 -4.25146 296.926 87.4003 -61.9868
lowerback 3.59558 2.1903 0.58783
upperback 4.35353 3.0447 -0.857459
thorax 2.53834 1.59605 -1.24545
lowerneck -7.29096 5.04377 8.88293
upperneck 4.25755 6.1462 -4.57159
head 3.18034 3.05882 -2.78554
rclavicle -1.87852e-014 -3.57812e-015
rhumerus -29.4316 7.11654 -92.2476
rradius 33.5108
rwrist -19.1259
rhand -17.1115 0.666283
rfingers 7.12502
rthumb 9.12775 -29.1162
lclavicle -1.87852e-014 -3.57812e-015
lhumerus -21.1084 0.10337 86.5658
lradius 28.7394
lwrist -4.36598
lhand -18.3322 13.0103
lfingers 7.12502
lthumb 7.94967 42.8408
rfemur -7.32011 18.9812 28.0258
rtibia 28.3625
rfoot -34.0166 -29.2905
rtoes -8.09848
lfemur -10.8664 -18.1337 -21.37
ltibia 34.3385
lfoot -29.306 26.4735
ltoes 2.36299
536
root 23.7557 15.2769 -4.25229 297.316 87.664 -61.5772
lowerback 3.54812 2.18854 0.355971
upperback 4.33716 3.04016 -0.950007
thorax 2.54079 1.58866 -1.20947
lowerneck -7.08361 5.07387 8.87696
upperneck 4.18572 6.19873 -4.47778
head 3.1149 3.0893 -2.75217
rclavicle 9.93923e-016 -3.18055e-015
rhumerus -29.5438 6.83224 -92.2167
rradius 33.2467
rwrist -19.0661
rhand -17.2212 0.625979
rfingers 7.12502
rthumb 9.02191 -29.1611
lclavicle 9.93923e-016 -3.18055e-015
lhumerus -21.3504 0.304977 86.4443
lradius 28.4733
lwrist -4.43183
lhand -18.3583 13.0521
lfingers 7.12502
lthumb 7.92453 42.8836
rfemur -7.25823 18.947 27.7833
rtibia 28.3973
rfoot -34.2625 -29.2657
rtoes -7.84983
lfemur -10.7863 -18.1683 -21.6529
ltibia 34.2903
lfoot -29.4734 26.2784
ltoes 3.00686
